<?xml version="1.0" encoding="UTF-8"?>
<svg width="700pt" height="700pt" version="1.1" viewBox="0 0 700 700" xmlns="http://www.w3.org/2000/svg" xmlns:xlink="http://www.w3.org/1999/xlink">
 <defs>
  <symbol id="m" overflow="visible">
   <path d="m29.312-1.75c-1.5117 0.78125-3.0898 1.3711-4.7344 1.7656-1.6367 0.40625-3.3398 0.60938-5.1094 0.60938-5.3125 0-9.5273-1.4844-12.641-4.4531-3.1055-2.9688-4.6562-7-4.6562-12.094s1.5508-9.125 4.6562-12.094c3.1133-2.9688 7.3281-4.4531 12.641-4.4531 1.7695 0 3.4727 0.19922 5.1094 0.59375 1.6445 0.39844 3.2227 0.99219 4.7344 1.7812v6.5938c-1.5312-1.0391-3.0391-1.8008-4.5156-2.2812-1.4805-0.48828-3.0391-0.73438-4.6719-0.73438-2.9375 0-5.2461 0.94531-6.9219 2.8281-1.6797 1.875-2.5156 4.4648-2.5156 7.7656 0 3.293 0.83594 5.8828 2.5156 7.7656 1.6758 1.875 3.9844 2.8125 6.9219 2.8125 1.6328 0 3.1914-0.23828 4.6719-0.71875 1.4766-0.48828 2.9844-1.2539 4.5156-2.2969z"/>
  </symbol>
  <symbol id="c" overflow="visible">
   <path d="m21.453-17.406c-0.67969-0.3125-1.3516-0.53906-2.0156-0.6875-0.65625-0.15625-1.3203-0.23438-1.9844-0.23438-1.9688 0-3.4844 0.63281-4.5469 1.8906-1.0547 1.2617-1.5781 3.0703-1.5781 5.4219v11.016h-7.6562v-23.922h7.6562v3.9219c0.97656-1.5625 2.1016-2.7031 3.375-3.4219 1.2812-0.71875 2.8125-1.0781 4.5938-1.0781 0.25 0 0.52344 0.011719 0.82812 0.03125 0.30078 0.023438 0.73438 0.070312 1.2969 0.14062z"/>
  </symbol>
  <symbol id="b" overflow="visible">
   <path d="m27.562-12.031v2.1875h-17.891c0.1875 1.793 0.83203 3.1367 1.9375 4.0312 1.1133 0.89844 2.6719 1.3438 4.6719 1.3438 1.6016 0 3.25-0.23438 4.9375-0.70312 1.6875-0.47656 3.4219-1.2031 5.2031-2.1719v5.8906c-1.8047 0.6875-3.6094 1.2031-5.4219 1.5469-1.8125 0.35156-3.6211 0.53125-5.4219 0.53125-4.3359 0-7.7031-1.0977-10.109-3.2969-2.3984-2.207-3.5938-5.2969-3.5938-9.2656 0-3.9062 1.1758-6.9727 3.5312-9.2031 2.3633-2.2383 5.6094-3.3594 9.7344-3.3594 3.7578 0 6.7695 1.1367 9.0312 3.4062 2.2578 2.2617 3.3906 5.2812 3.3906 9.0625zm-7.8594-2.5312c0-1.457-0.42969-2.6289-1.2812-3.5156-0.84375-0.89453-1.9492-1.3438-3.3125-1.3438-1.4922 0-2.6992 0.41797-3.625 1.25-0.91797 0.83594-1.4922 2.0391-1.7188 3.6094z"/>
  </symbol>
  <symbol id="i" overflow="visible">
   <path d="m14.391-10.766c-1.5938 0-2.793 0.27344-3.5938 0.8125-0.80469 0.54297-1.2031 1.3398-1.2031 2.3906 0 0.96875 0.32031 1.7305 0.96875 2.2812 0.64453 0.54297 1.5469 0.8125 2.7031 0.8125 1.4375 0 2.6445-0.51562 3.625-1.5469 0.98828-1.0312 1.4844-2.3203 1.4844-3.875v-0.875zm11.688-2.8906v13.656h-7.7031v-3.5469c-1.0312 1.4492-2.1875 2.5078-3.4688 3.1719s-2.8398 1-4.6719 1c-2.4805 0-4.4961-0.72266-6.0469-2.1719-1.543-1.4453-2.3125-3.3203-2.3125-5.625 0-2.8125 0.96094-4.8672 2.8906-6.1719 1.9375-1.3125 4.9688-1.9688 9.0938-1.9688h4.5156v-0.60938c0-1.207-0.48047-2.0938-1.4375-2.6562-0.94922-0.5625-2.4375-0.84375-4.4688-0.84375-1.6367 0-3.1562 0.16797-4.5625 0.5-1.4062 0.32422-2.7188 0.8125-3.9375 1.4688v-5.8281c1.6445-0.40625 3.2891-0.70703 4.9375-0.90625 1.6562-0.20703 3.3047-0.3125 4.9531-0.3125 4.3203 0 7.4375 0.85547 9.3438 2.5625 1.9141 1.6992 2.875 4.4609 2.875 8.2812z"/>
  </symbol>
  <symbol id="a" overflow="visible">
   <path d="m12.031-30.719v6.7969h7.875v5.4688h-7.875v10.141c0 1.1172 0.21875 1.8711 0.65625 2.2656 0.4375 0.38672 1.3125 0.57812 2.625 0.57812h3.9375v5.4688h-6.5625c-3.0234 0-5.1641-0.62891-6.4219-1.8906-1.2617-1.2578-1.8906-3.3984-1.8906-6.4219v-10.141h-3.7969v-5.4688h3.7969v-6.7969z"/>
  </symbol>
  <symbol id="h" overflow="visible">
   <path d="m19.953-20.422v-12.812h7.6875v33.234h-7.6875v-3.4531c-1.0547 1.4062-2.2148 2.4375-3.4844 3.0938-1.2734 0.65625-2.7422 0.98438-4.4062 0.98438-2.9492 0-5.3711-1.1719-7.2656-3.5156-1.8867-2.3438-2.8281-5.3594-2.8281-9.0469s0.94141-6.7031 2.8281-9.0469c1.8945-2.3438 4.3164-3.5156 7.2656-3.5156 1.6562 0 3.1172 0.33594 4.3906 1 1.2812 0.65625 2.4453 1.6836 3.5 3.0781zm-5.0469 15.484c1.6445 0 2.8945-0.59766 3.75-1.7969 0.86328-1.1953 1.2969-2.9297 1.2969-5.2031 0-2.2812-0.43359-4.0195-1.2969-5.2188-0.85547-1.1953-2.1055-1.7969-3.75-1.7969-1.625 0-2.8711 0.60156-3.7344 1.7969-0.85547 1.1992-1.2812 2.9375-1.2812 5.2188 0 2.2734 0.42578 4.0078 1.2812 5.2031 0.86328 1.1992 2.1094 1.7969 3.7344 1.7969z"/>
  </symbol>
  <symbol id="g" overflow="visible">
   <path d="m16.406-4.9375c1.6328 0 2.8828-0.59766 3.75-1.7969 0.86328-1.1953 1.2969-2.9297 1.2969-5.2031 0-2.2812-0.43359-4.0195-1.2969-5.2188-0.86719-1.1953-2.1172-1.7969-3.75-1.7969-1.6367 0-2.8906 0.60547-3.7656 1.8125-0.875 1.1992-1.3125 2.9336-1.3125 5.2031 0 2.2617 0.4375 3.9961 1.3125 5.2031 0.875 1.1992 2.1289 1.7969 3.7656 1.7969zm-5.0781-15.484c1.0508-1.3945 2.2188-2.4219 3.5-3.0781 1.2812-0.66406 2.7539-1 4.4219-1 2.9453 0 5.3672 1.1719 7.2656 3.5156 1.8945 2.3438 2.8438 5.3594 2.8438 9.0469s-0.94922 6.7031-2.8438 9.0469c-1.8984 2.3438-4.3203 3.5156-7.2656 3.5156-1.668 0-3.1406-0.33594-4.4219-1s-2.4492-1.6914-3.5-3.0781v3.4531h-7.6562v-33.234h7.6562z"/>
  </symbol>
  <symbol id="f" overflow="visible">
   <path d="m0.53125-23.922h7.6562l6.4219 16.234 5.4688-16.234h7.6562l-10.062 26.188c-1.0117 2.6641-2.1953 4.5234-3.5469 5.5781-1.3438 1.0625-3.1211 1.5938-5.3281 1.5938h-4.4219v-5.0156h2.3906c1.3008 0 2.2422-0.21094 2.8281-0.625 0.59375-0.40625 1.0547-1.1484 1.3906-2.2188l0.20312-0.65625z"/>
  </symbol>
  <symbol id="e" overflow="visible">
   <path d="m22.359-23.172v5.7969c-1.6367-0.67578-3.2148-1.1875-4.7344-1.5312-1.5234-0.34375-2.9609-0.51562-4.3125-0.51562-1.4609 0-2.543 0.18359-3.25 0.54688-0.69922 0.36719-1.0469 0.92188-1.0469 1.6719 0 0.61719 0.26562 1.0898 0.79688 1.4219 0.53125 0.32422 1.4883 0.5625 2.875 0.71875l1.3438 0.1875c3.9141 0.5 6.5508 1.3242 7.9062 2.4688 1.3516 1.1367 2.0312 2.9219 2.0312 5.3594 0 2.5547-0.94531 4.4688-2.8281 5.75-1.875 1.2812-4.6797 1.9219-8.4062 1.9219-1.5859 0-3.2188-0.125-4.9062-0.375s-3.4219-0.625-5.2031-1.125v-5.8125c1.5195 0.74219 3.082 1.2969 4.6875 1.6719 1.6016 0.36719 3.2344 0.54688 4.8906 0.54688 1.4883 0 2.6094-0.20312 3.3594-0.60938 0.75781-0.41406 1.1406-1.0312 1.1406-1.8438 0-0.6875-0.26172-1.1953-0.78125-1.5312-0.52344-0.33203-1.5586-0.59375-3.1094-0.78125l-1.3438-0.17188c-3.4062-0.42578-5.793-1.2109-7.1562-2.3594-1.3672-1.1562-2.0469-2.9102-2.0469-5.2656 0-2.5312 0.86719-4.4062 2.6094-5.625 1.7383-1.2266 4.3984-1.8438 7.9844-1.8438 1.4062 0 2.8828 0.10938 4.4375 0.32812 1.5508 0.21094 3.2383 0.54297 5.0625 1z"/>
  </symbol>
  <symbol id="l" overflow="visible">
   <path d="m3.6719-23.922h7.6562v23.922h-7.6562zm0-9.3125h7.6562v6.2344h-7.6562z"/>
  </symbol>
  <symbol id="k" overflow="visible">
   <path d="m11.328-3.4531v12.547h-7.6562v-33.016h7.6562v3.5c1.0508-1.3945 2.2188-2.4219 3.5-3.0781 1.2812-0.66406 2.7539-1 4.4219-1 2.9453 0 5.3672 1.1719 7.2656 3.5156 1.8945 2.3438 2.8438 5.3594 2.8438 9.0469s-0.94922 6.7031-2.8438 9.0469c-1.8984 2.3438-4.3203 3.5156-7.2656 3.5156-1.668 0-3.1406-0.33594-4.4219-1s-2.4492-1.6914-3.5-3.0781zm5.0781-15.5c-1.6367 0-2.8906 0.60547-3.7656 1.8125-0.875 1.1992-1.3125 2.9336-1.3125 5.2031 0 2.2617 0.4375 3.9961 1.3125 5.2031 0.875 1.1992 2.1289 1.7969 3.7656 1.7969 1.6328 0 2.8828-0.59766 3.75-1.7969 0.86328-1.1953 1.2969-2.9297 1.2969-5.2031 0-2.2812-0.43359-4.0195-1.2969-5.2188-0.86719-1.1953-2.1172-1.7969-3.75-1.7969z"/>
  </symbol>
  <symbol id="j" overflow="visible">
   <path d="m19.422-33.234v5.0156h-4.2344c-1.0859 0-1.8398 0.19922-2.2656 0.59375-0.42969 0.38672-0.64062 1.0625-0.64062 2.0312v1.6719h6.5312v5.4688h-6.5312v18.453h-7.6406v-18.453h-3.8125v-5.4688h3.8125v-1.6719c0-2.6016 0.72266-4.5234 2.1719-5.7656 1.457-1.25 3.707-1.875 6.75-1.875z"/>
  </symbol>
  <symbol id="d" overflow="visible">
   <path d="m15.062-19.031c-1.6992 0-2.9961 0.60938-3.8906 1.8281-0.88672 1.2188-1.3281 2.9766-1.3281 5.2656 0 2.293 0.44141 4.0469 1.3281 5.2656 0.89453 1.2188 2.1914 1.8281 3.8906 1.8281 1.6641 0 2.9375-0.60938 3.8125-1.8281 0.88281-1.2188 1.3281-2.9727 1.3281-5.2656 0-2.2891-0.44531-4.0469-1.3281-5.2656-0.875-1.2188-2.1484-1.8281-3.8125-1.8281zm0-5.4688c4.1133 0 7.3281 1.1094 9.6406 3.3281s3.4688 5.2969 3.4688 9.2344c0 3.9297-1.1562 7.0078-3.4688 9.2344-2.3125 2.2188-5.5273 3.3281-9.6406 3.3281-4.1367 0-7.3711-1.1094-9.7031-3.3281-2.3242-2.2266-3.4844-5.3047-3.4844-9.2344 0-3.9375 1.1602-7.0156 3.4844-9.2344 2.332-2.2188 5.5664-3.3281 9.7031-3.3281z"/>
  </symbol>
 </defs>
 <g>
  <path d="m575.32 291.71c-10.523-5.3281-23.02-5-33.25 0.875l-87.812 50.652c-1.4258-7.5273-5.293-14.379-11.008-19.484-6.4688-5.6367-14.758-8.7461-23.336-8.75h-71.402c-2.3477-0.003906-4.5938-0.94922-6.2383-2.625l-2.1016-2.1016c-8.2031-8.1523-19.293-12.742-30.859-12.773h-67.289c-1.3203 0-2.625 0.085938-4.375 0.21875-10.051 1-19.445 5.4453-26.59 12.582l-33.645 33.645-6.8945-6.8945c-3.4141-3.4102-8.9492-3.4102-12.363 0l-68.031 67.969c-3.4141 3.418-3.4141 8.957 0 12.371l123.68 123.79c3.418 3.4141 8.957 3.4141 12.375 0l68.059-68.059h-0.003906c3.418-3.418 3.418-8.957 0-12.371l-8.1797-8.1797 12.469-12.445c1.6445-1.6758 3.8906-2.6211 6.2383-2.625h114.62c7.6875 0.015625 15.238-2.0195 21.875-5.8984l135.8-78.398c5.3477-3.0469 9.7852-7.4609 12.863-12.793 3.0742-5.3281 4.6758-11.383 4.6367-17.535-0.003906-6.1406-1.6133-12.176-4.6719-17.5-3.3867-5.9062-8.4609-10.664-14.57-13.668zm-355.33 230.91-111.32-111.37 55.684-55.613 111.32 111.3zm348.32-184.57-135.87 78.453c-3.9609 2.3086-8.4688 3.5156-13.055 3.5h-114.62c-6.9844-0.015625-13.688 2.7656-18.609 7.7266l-12.469 12.469-83.879-83.879 33.645-33.645c4.25-4.25 9.832-6.9062 15.812-7.5234 0.96094-0.078126 1.8633-0.14844 2.7656-0.14844h67.289-0.003906c6.9336 0.027344 13.574 2.7852 18.488 7.6719l2.1016 2.1016c4.9219 4.9609 11.625 7.7422 18.609 7.7266h71.402c4.3164-0.007812 8.4922 1.5469 11.758 4.375 3.2891 2.8828 5.3555 6.9102 5.7773 11.262 0.28125 2.7383-0.11719 5.5039-1.1641 8.0508-0.80469 2.3438-2.1484 4.4688-3.9219 6.2031-3.2734 3.2852-7.7266 5.1289-12.363 5.1094h-57.574c-4.832 0-8.75 3.918-8.75 8.75s3.918 8.75 8.75 8.75h57.574c9.2852 0.019531 18.191-3.6758 24.734-10.266 2.8438-2.8125 5.1562-6.1094 6.8359-9.7383l99.207-57.277c5.168-2.9297 11.465-3.0625 16.746-0.34766 3.0195 1.4766 5.5273 3.8242 7.2031 6.7383 1.5234 2.6641 2.3281 5.6797 2.3359 8.75 0.019531 3.0781-0.77734 6.1094-2.3164 8.7812-1.5352 2.668-3.7578 4.8789-6.4336 6.4062z"/>
  <path d="m446.25 201.25c-14.227 0-26.25-8.0156-26.25-17.5 0-4.832-3.918-8.75-8.75-8.75s-8.75 3.918-8.75 8.75c0 16.906 15.059 31.035 35 34.293v9.457c0 4.832 3.918 8.75 8.75 8.75s8.75-3.918 8.75-8.75v-9.457c19.941-3.2539 35-17.387 35-34.293 0-19.301-19.625-35-43.75-35-14.227 0-26.25-8.0156-26.25-17.5s12.023-17.5 26.25-17.5 26.25 8.0156 26.25 17.5c0 4.832 3.918 8.75 8.75 8.75s8.75-3.918 8.75-8.75c0-16.906-15.059-31.035-35-34.293v-9.457c0-4.832-3.918-8.75-8.75-8.75s-8.75 3.918-8.75 8.75v9.457c-19.941 3.2539-35 17.387-35 34.293 0 19.301 19.625 35 43.75 35 14.227 0 26.25 8.0156 26.25 17.5s-12.023 17.5-26.25 17.5z"/>
  <path d="m608.44 135.31c-3.418-3.4141-8.957-3.4141-12.375 0l-10.414 10.414h0.003906c-3.6523-42.676-26.637-81.336-62.387-104.93-35.754-23.59-80.336-29.516-121.01-16.082-40.672 13.43-72.957 44.742-87.629 84.984-0.88281 2.1992-0.83203 4.6641 0.13672 6.8281 0.96875 2.1602 2.7734 3.8398 5 4.6484 2.2305 0.80859 4.6914 0.67969 6.8203-0.35938 2.1289-1.0391 3.75-2.8984 4.4844-5.1484 12.688-34.961 40.566-62.262 75.785-74.211 35.215-11.953 73.953-7.2578 105.3 12.758s51.895 53.184 55.867 90.16l-9.0898-9.0898c-1.6328-1.6914-3.8711-2.6523-6.2188-2.6719s-4.6055 0.90234-6.2617 2.5625c-1.6602 1.6602-2.5859 3.9141-2.5625 6.2617 0.019531 2.3477 0.98047 4.5898 2.668 6.2188l24.754 24.754c3.418 3.4141 8.957 3.4141 12.375 0l24.754-24.754c3.3984-3.4141 3.3984-8.9336 0-12.348z"/>
  <path d="m296.43 179.69 10.414-10.414h-0.003906c3.6641 42.902 26.863 81.73 62.906 105.29 36.043 23.551 80.922 29.211 121.68 15.344 40.762-13.871 72.875-45.723 87.074-86.371 0.76953-2.1953 0.63281-4.6055-0.375-6.6992-1.0117-2.0938-2.8125-3.6992-5.0078-4.4648-2.1953-0.76172-4.6055-0.62109-6.6992 0.39453-2.0898 1.0156-3.6914 2.8203-4.4492 5.0195-12.277 35.309-40.008 63.074-75.297 75.402-35.289 12.332-74.277 7.8711-105.87-12.105-31.598-19.98-52.34-53.289-56.332-90.457l9.0898 9.0898c3.4336 3.3164 8.8906 3.2695 12.266-0.10547s3.4258-8.832 0.10938-12.266l-24.754-24.754c-3.418-3.4141-8.957-3.4141-12.375 0l-24.754 24.754c-3.3164 3.4336-3.2656 8.8906 0.10938 12.266s8.832 3.4219 12.266 0.10547z"/>
  <use x="70" y="691.25" xlink:href="#m"/>
  <use x="102.109375" y="691.25" xlink:href="#c"/>
  <use x="123.683594" y="691.25" xlink:href="#b"/>
  <use x="153.355469" y="691.25" xlink:href="#i"/>
  <use x="182.878906" y="691.25" xlink:href="#a"/>
  <use x="203.792969" y="691.25" xlink:href="#b"/>
  <use x="233.464844" y="691.25" xlink:href="#h"/>
  <use x="280.011719" y="691.25" xlink:href="#g"/>
  <use x="311.328125" y="691.25" xlink:href="#f"/>
  <use x="355.078125" y="691.25" xlink:href="#e"/>
  <use x="381.121094" y="691.25" xlink:href="#c"/>
  <use x="402.695312" y="691.25" xlink:href="#l"/>
  <use x="417.691406" y="691.25" xlink:href="#k"/>
  <use x="449.011719" y="691.25" xlink:href="#j"/>
  <use x="468.042969" y="691.25" xlink:href="#d"/>
  <use x="498.101562" y="691.25" xlink:href="#a"/>
  <use x="519.015625" y="691.25" xlink:href="#d"/>
 </g>
</svg>
