<svg width="140" height="140" viewBox="0 0 140 140" fill="none" xmlns="http://www.w3.org/2000/svg">
<path d="M70.3862 52.2754C66.2433 52.2754 40.301 56.4189 27.8477 58.4906C27.8477 65.3274 42.6437 72.9929 50.0417 75.971L109.965 73.6403C110.582 69.3673 111.445 60.5106 109.965 59.2675C108.116 57.7137 75.5648 52.2754 70.3862 52.2754Z" fill="white"/>
<path d="M65.1814 64.4376C65.1814 64.4376 68.1097 81.1326 65.1814 120.012C65.0551 121.672 112.363 112.012 112.558 109.947C121.476 77.063 112.558 57.8042 112.558 57.8042C112.558 57.8042 80.2668 62.6066 65.1814 64.4376Z" fill="#71D7D9"/>
<path d="M29.3075 58C29.3075 58 25.7811 82.8197 30.311 109.078C30.6912 111.281 61.4133 119.788 64.5 119.5C67.5867 119.212 73 66.0428 73 66.0428L29.3075 58Z" fill="#71D7D9"/>
<path d="M64.5521 64.9131C64.5521 64.9131 71.2138 85.3323 64.5002 119.5C64.3777 121.16 109.971 112.012 110.161 109.947C118.669 76.761 110.161 57.8044 110.161 57.8044C110.161 57.8044 79.1924 63.0821 64.5521 64.9131Z" stroke="#023F80" stroke-linecap="round" stroke-linejoin="round"/>
<path d="M64.5003 119.5C61.6333 119.778 27.9445 110.465 27.5914 108.342C23.384 83.0395 26.7598 57.0144 26.7598 57.0144L64.5763 64.913" stroke="#023F80" stroke-linecap="round" stroke-linejoin="round"/>
<path d="M110 110C101 113 76 120 65 120C95 120 125 113 110 110Z" fill="#023F80"/>
<path d="M27.0581 56.6698C27.0581 56.6698 65.8648 50.1112 72.3356 50.7378C78.8064 51.3643 104.759 55.8467 109.993 57.8043" stroke="#023F80" stroke-linecap="round" stroke-linejoin="round"/>
<path d="M64.1812 64.9131C64.1812 64.9131 77.4188 73.2066 77.4188 83.8697L125 73.2066C125 73.2066 121.175 57.8044 109.868 57.8044L64.1812 64.9131Z" fill="#FFE245" stroke="#023F80" stroke-linecap="round" stroke-linejoin="round"/>
<path d="M77.9721 39.5032C77.3435 39.2193 76.697 38.9765 76.0369 38.7766C75.3738 38.5775 74.7755 38.2056 74.3036 37.6989C73.8316 37.1923 73.503 36.5692 73.3514 35.8936C73.2027 35.2691 73.0154 34.6545 72.7906 34.0532C72.7098 33.8534 72.5711 33.6823 72.3924 33.5618C72.2137 33.4413 72.003 33.377 71.7875 33.377C71.572 33.377 71.3613 33.4413 71.1826 33.5618C71.0039 33.6823 70.8652 33.8534 70.7844 34.0532C70.5552 34.6525 70.36 35.2643 70.1999 35.8857C70.0505 36.561 69.7236 37.1843 69.2529 37.6911C68.7822 38.1979 68.1848 38.5699 67.5223 38.7687C66.8626 38.9589 66.2183 39.1992 65.5951 39.4874C65.4087 39.5734 65.2508 39.7109 65.1402 39.8838C65.0295 40.0567 64.9707 40.2576 64.9707 40.4629C64.9707 40.6681 65.0295 40.8691 65.1402 41.042C65.2508 41.2149 65.4087 41.3524 65.5951 41.4384C66.2222 41.7257 66.8689 41.9686 67.5302 42.165C68.1931 42.3631 68.7909 42.7348 69.2617 43.2417C69.7325 43.7487 70.0592 44.3723 70.2078 45.048C70.3658 45.6483 70.5553 46.2565 70.7765 46.8568C70.856 47.0591 70.9947 47.2327 71.1743 47.3551C71.3539 47.4775 71.5662 47.5429 71.7835 47.5429C72.0009 47.5429 72.2132 47.4775 72.3929 47.3551C72.5725 47.2327 72.7111 47.0591 72.7906 46.8568C73.0171 46.2607 73.207 45.6514 73.3593 45.0322C73.5154 44.3586 73.8456 43.7378 74.3169 43.2319C74.7881 42.726 75.384 42.3526 76.0448 42.1492C76.7032 41.9581 77.3473 41.7206 77.9721 41.4384C78.1517 41.3484 78.3027 41.2103 78.4082 41.0394C78.5138 40.8685 78.5697 40.6716 78.5697 40.4708C78.5697 40.2699 78.5138 40.0731 78.4082 39.9022C78.3027 39.7313 78.1517 39.5932 77.9721 39.5032Z" fill="#EB0045"/>
<path d="M71.0529 19.5167C70.693 19.3552 70.3237 19.2154 69.9471 19.098C69.5695 18.9827 69.2293 18.769 68.9614 18.479C68.6936 18.1889 68.5076 17.8328 68.4226 17.4472C68.3347 17.0877 68.2239 16.7342 68.0909 16.3888C68.0454 16.2741 67.9664 16.1757 67.8643 16.1064C67.7622 16.0371 67.6417 16 67.5182 16C67.3948 16 67.2743 16.0371 67.1722 16.1064C67.0701 16.1757 66.9911 16.2741 66.9456 16.3888C66.8125 16.7342 66.7017 17.0877 66.6139 17.4472C66.5219 17.8383 66.3268 18.1977 66.049 18.488C65.7713 18.7782 65.4209 18.9889 65.0342 19.098C64.6557 19.2066 64.286 19.3439 63.9284 19.5088C63.8207 19.5577 63.7294 19.6367 63.6654 19.7361C63.6014 19.8355 63.5674 19.9513 63.5674 20.0696C63.5674 20.1878 63.6014 20.3036 63.6654 20.403C63.7294 20.5025 63.8207 20.5814 63.9284 20.6304C64.2905 20.7931 64.6624 20.9329 65.042 21.049C65.4295 21.1566 65.7808 21.3668 66.0588 21.6573C66.3368 21.9478 66.5313 22.308 66.6218 22.6998C66.708 23.0537 66.8162 23.4019 66.9456 23.7424C66.9928 23.8565 67.0728 23.954 67.1754 24.0226C67.2781 24.0912 67.3987 24.1278 67.5222 24.1278C67.6457 24.1278 67.7664 24.0912 67.869 24.0226C67.9717 23.954 68.0516 23.8565 68.0988 23.7424C68.2252 23.3949 68.3358 23.0473 68.4306 22.6919C68.5192 22.3055 68.7083 21.9493 68.9787 21.6594C69.2492 21.3696 69.5914 21.1562 69.9708 21.0411C70.3463 20.9312 70.7132 20.7939 71.0686 20.6304C71.1734 20.579 71.2614 20.4989 71.3225 20.3994C71.3835 20.2999 71.415 20.1852 71.4133 20.0685C71.4117 19.9518 71.3769 19.838 71.3131 19.7403C71.2493 19.6426 71.1591 19.5651 71.0529 19.5167Z" fill="#EB0045"/>
<path d="M47.8151 19.73C47.1462 19.73 46.4923 19.9285 45.9362 20.3003C45.3801 20.6721 44.9468 21.2005 44.6911 21.8187C44.4355 22.4369 44.369 23.117 44.5001 23.773C44.6312 24.429 44.954 25.0313 45.4275 25.5038C45.9011 25.9763 46.5042 26.2976 47.1605 26.4272C47.8168 26.5567 48.4968 26.4886 49.1143 26.2315C49.7319 25.9745 50.2593 25.5399 50.6298 24.983C51.0003 24.426 51.1973 23.7716 51.1957 23.1027C51.1957 22.6591 51.1082 22.2199 50.9382 21.8102C50.7683 21.4005 50.5191 21.0283 50.2051 20.715C49.8911 20.4017 49.5183 20.1535 49.1082 19.9845C48.6981 19.8154 48.2587 19.729 47.8151 19.73Z" fill="#EB0045"/>
<path d="M58.5808 30.4719C58.2759 30.4704 57.9773 30.5594 57.723 30.7277C57.4687 30.896 57.27 31.136 57.1522 31.4172C57.0344 31.6985 57.0028 32.0085 57.0614 32.3078C57.1199 32.6071 57.266 32.8822 57.481 33.0984C57.6961 33.3146 57.9705 33.4621 58.2695 33.5222C58.5685 33.5822 58.8786 33.5522 59.1605 33.4359C59.4424 33.3195 59.6834 33.1221 59.853 32.8687C60.0226 32.6152 60.1131 32.3171 60.1131 32.0122C60.1142 31.8103 60.0753 31.6102 59.9988 31.4233C59.9222 31.2365 59.8095 31.0667 59.6671 30.9235C59.5248 30.7804 59.3555 30.6668 59.1691 30.5893C58.9826 30.5118 58.7827 30.4719 58.5808 30.4719Z" fill="#EB0045"/>
<path d="M55.5528 80.7101C55.5528 74.2188 61.0218 66.4611 64.1812 65.7029L24.6885 75.1811L51.7164 84.6049C52.8673 84.8934 55.5528 85.9032 55.5528 80.7101Z" fill="#023F80"/>
<path d="M64.9712 64.6383C64.9712 64.6383 54.0243 72.7242 54.0243 83.8695L16.0002 72.7241C16.0002 72.7241 18.3785 56.2246 27.4145 56.2246L64.9712 64.6383Z" fill="#FFE245" stroke="#023F80" stroke-linecap="round" stroke-linejoin="round"/>
</svg>
